<svg width="34" height="34" viewBox="0 0 34 34" fill="none" xmlns="http://www.w3.org/2000/svg">
<path d="M28.8471 11.0925L19.7763 3.83589C18.0037 2.42335 15.234 2.4095 13.4753 3.82204L4.40454 11.0925C3.10278 12.1311 2.31342 14.2084 2.59039 15.8425L4.3353 26.2842C4.7369 28.6246 6.91111 30.4665 9.27919 30.4665H23.9586C26.2989 30.4665 28.5147 28.5831 28.9163 26.2704L30.6612 15.8287C30.9105 14.2084 30.1211 12.1311 28.8471 11.0925ZM17.6575 24.9271C17.6575 25.4949 17.1867 25.9657 16.6189 25.9657C16.0511 25.9657 15.5802 25.4949 15.5802 24.9271V20.7725C15.5802 20.2048 16.0511 19.7339 16.6189 19.7339C17.1867 19.7339 17.6575 20.2048 17.6575 20.7725V24.9271Z" fill="white"/>
</svg>
