<svg width="34" height="34" viewBox="0 0 34 34" fill="none" xmlns="http://www.w3.org/2000/svg">
<path d="M21.8792 3.06086C21.3114 2.49307 20.3281 2.88083 20.3281 3.67019V8.5033C20.3281 10.5252 22.0453 12.2008 24.1365 12.2008C25.4521 12.2147 27.2801 12.2147 28.8449 12.2147C29.6343 12.2147 30.0497 11.2868 29.4958 10.7329C27.5016 8.72488 23.9287 5.11043 21.8792 3.06086Z" fill="white"/>
<path d="M28.3882 14.1114H24.386C21.1039 14.1114 18.4311 11.4387 18.4311 8.15658V4.15438C18.4311 3.39271 17.8079 2.76953 17.0463 2.76953H11.1745C6.9092 2.76953 3.46094 5.53922 3.46094 10.4831V22.7529C3.46094 27.6968 6.9092 30.4664 11.1745 30.4664H22.0594C26.3247 30.4664 29.773 27.6968 29.773 22.7529V15.4963C29.773 14.7346 29.1498 14.1114 28.3882 14.1114ZM15.9245 24.5808H10.3852C9.81738 24.5808 9.34653 24.11 9.34653 23.5422C9.34653 22.9744 9.81738 22.5036 10.3852 22.5036H15.9245C16.4923 22.5036 16.9632 22.9744 16.9632 23.5422C16.9632 24.11 16.4923 24.5808 15.9245 24.5808ZM18.6942 19.0415H10.3852C9.81738 19.0415 9.34653 18.5706 9.34653 18.0028C9.34653 17.435 9.81738 16.9642 10.3852 16.9642H18.6942C19.262 16.9642 19.7329 17.435 19.7329 18.0028C19.7329 18.5706 19.262 19.0415 18.6942 19.0415Z" fill="white"/>
</svg>
