<svg width="34" height="34" viewBox="0 0 34 34" fill="none" xmlns="http://www.w3.org/2000/svg">
<path d="M23.5422 4.84766H9.69376C5.53922 4.84766 2.76953 6.92492 2.76953 11.7719V21.4658C2.76953 26.3128 5.53922 28.39 9.69376 28.39H23.5422C27.6968 28.39 30.4664 26.3128 30.4664 21.4658V11.7719C30.4664 6.92492 27.6968 4.84766 23.5422 4.84766ZM8.65512 20.081C8.65512 20.6487 8.18428 21.1196 7.61649 21.1196C7.0487 21.1196 6.57786 20.6487 6.57786 20.081V13.1567C6.57786 12.5889 7.0487 12.1181 7.61649 12.1181C8.18428 12.1181 8.65512 12.5889 8.65512 13.1567V20.081ZM16.618 20.7734C14.3191 20.7734 12.4634 18.9177 12.4634 16.6188C12.4634 14.32 14.3191 12.4643 16.618 12.4643C18.9168 12.4643 20.7725 14.32 20.7725 16.6188C20.7725 18.9177 18.9168 20.7734 16.618 20.7734ZM26.6581 20.081C26.6581 20.6487 26.1873 21.1196 25.6195 21.1196C25.0517 21.1196 24.5808 20.6487 24.5808 20.081V13.1567C24.5808 12.5889 25.0517 12.1181 25.6195 12.1181C26.1873 12.1181 26.6581 12.5889 26.6581 13.1567V20.081Z" fill="white"/>
</svg>
